<svg xmlns="http://www.w3.org/2000/svg" version="1.1" xmlns:xlink="http://www.w3.org/1999/xlink" xmlns:svgjs="http://svgjs.dev/svgjs" width="100%" height="100%" viewBox="0 0 1000 600"><rect width="1000" height="600" x="0" y="0" fill="#191919"/><g><circle r="166.66666666666666" cx="352.80288187662757" cy="375.02508495395625" fill="#b88746" transform="matrix(0.6715512254006382,0,0,0.671551225400638,0,48.15143319910044)"/><path d="M315.95764115373925 450.02508474049284L301.16597493489576 450.02508474049284L301.16597493489576 300.02508928179896L321.52311717571854 300.02508928179896L352.80287813347394 371.6024680671479L384.08263909122934 300.02508928179896L404.43978133205206 300.02508928179896L404.43978133205206 450.02508474049284L389.2314484591567 450.02508474049284L389.2314484591567 320.3822315226217L352.59454480644797 405.02508610288464L315.95764115373925 320.3822315226217L315.95764115373925 450.02508474049284Z " fill="#191919" transform="matrix(0.6715512254006382,0,0,0.671551225400638,0,48.15143319910044)"/><path d="M616.8318570041886 447.99272156924883L602.8028767903645 447.99272156924883L602.8028767903645 305.727006724836L622.1103666621062 305.727006724836L651.7772845790662 373.6137218440449L681.444202496026 305.727006724836L700.7516923677679 305.727006724836L700.7516923677679 447.99272156924883L686.3275296127093 447.99272156924883L686.3275296127093 325.0344965965777L651.5796933084489 405.31300711592496L616.8318570041886 325.0344965965777L616.8318570041886 447.99272156924883ZM764.7712640477536 450.02508892416904L764.7712640477536 450.02508892416904Q754.016653461301 450.02508892416904 745.5766834735074 446.1579454849459Q737.1367134857139 442.2908020457228 732.4509776396479 435.48801687161495Q727.7934691179559 428.6852316975071 727.7934691179559 419.7371698709835L727.7934691179559 419.7371698709835Q727.7934691179559 410.7891080444599 732.5638869371435 404.0992321678476Q737.3343047563311 397.3811289668615 745.971866014742 393.7398041226295Q754.6094272731527 390.07025195402366 765.9850389958309 390.07025195402366L765.9850389958309 390.07025195402366Q774.9331008223545 390.07025195402366 782.6673877008008 391.79211874083103Q790.3734472548732 393.5139855276384 797.2891417264766 397.5787202374787L797.2891417264766 397.5787202374787L797.2891417264766 386.20310851480053Q797.2891417264766 372.99272070781933 790.5992658498643 366.30284483120704Q783.8811626488781 359.58474163022083 770.6707748418969 359.58474163022083L770.6707748418969 359.58474163022083Q763.1623065584419 359.58474163022083 755.6256109506128 361.7300182826366Q748.1171426671576 363.84706761067844 738.7738982993995 369.1255772685962L738.7738982993995 369.1255772685962L732.676796234639 357.9475568165351Q743.4314068210916 352.0762733467657 753.1980610544582 349.6204961262372Q762.9364879634506 347.1929462300825 772.5055509261998 347.1929462300825L772.5055509261998 347.1929462300825Q791.3896309323333 347.1929462300825 801.6643770044298 356.73378186845787Q811.9391230765262 366.30284483120704 811.9391230765262 384.1707411598803L811.9391230765262 384.1707411598803L811.9391230765262 447.99272156924883L797.2891417264766 447.99272156924883L797.2891417264766 436.61710984657066Q790.3734472548732 443.53280431817404 782.356887132688 446.7789466211715Q774.3403270105028 450.02508892416904 764.7712640477536 450.02508892416904ZM742.0200406023971 419.34198732974903L742.0200406023971 419.34198732974903Q742.0200406023971 428.06423056128153 749.1333263446178 433.3709675435731Q756.2466120868384 438.64947720149075 767.8198150801339 438.64947720149075L767.8198150801339 438.64947720149075Q776.5702856360402 438.64947720149075 783.7682533513826 435.91142673722334Q790.9944483910988 433.145148948582 797.2891417264766 427.04804688382137L797.2891417264766 427.04804688382137L797.2891417264766 407.96637560707074Q790.9944483910988 404.0992321678476 783.8811626488781 402.462047354162Q776.7678769066575 400.8530898648502 768.2432249457423 400.8530898648502L768.2432249457423 400.8530898648502Q756.4442033574556 400.8530898648502 749.2180083177394 405.93400825215065Q742.0200406023971 411.0149266394511 742.0200406023971 419.34198732974903ZM924.5096926796053 447.99272156924883L853.6026538523901 447.99272156924883L853.6026538523901 435.7985174397278L880.8137945488213 435.7985174397278L880.8137945488213 360.99610784891547L853.6026538523901 360.99610784891547L853.6026538523901 348.8019037193943L895.6613671694882 348.8019037193943L895.6613671694882 370.9603533528991Q900.121284420563 359.58474163022083 909.0693462470866 353.37473026796476Q918.0174080736102 347.1929462300825 929.8164296618969 347.1929462300825L929.8164296618969 347.1929462300825Q934.473938183589 347.1929462300825 938.1434903521948 347.8986293394298Q941.7848151964268 348.604312448777 946.8657335837273 350.24149726246276L946.8657335837273 350.24149726246276L946.8657335837273 363.84706761067844Q941.7848151964268 362.2381101213666 937.2119886478564 361.22192644390657Q932.639162099286 360.2057427664464 928.1792448482112 360.2057427664464L928.1792448482112 360.2057427664464Q917.1988156667675 360.2057427664464 908.6741637058523 365.87943496559865Q900.121284420563 371.5813544891247 895.6613671694882 382.1383738049601L895.6613671694882 382.1383738049601L895.6613671694882 435.7985174397278L924.5096926796053 435.7985174397278L924.5096926796053 447.99272156924883ZM1033.8623473040607 450.02508892416904L1033.8623473040607 450.02508892416904Q1017.2082259234649 450.02508892416904 1008.3448460700629 442.7988938844528Q999.5096935410348 435.6009261691105 999.5096935410348 421.7695372259037L999.5096935410348 421.7695372259037L999.5096935410348 360.99610784891547L965.5804496436174 360.99610784891547L965.5804496436174 348.8019037193943L999.5096935410348 348.8019037193943L999.5096935410348 321.59076302296296L1014.3572661617019 318.1188021249743L1014.3572661617019 348.8019037193943L1060.0855316474058 348.8019037193943L1060.0855316474058 360.99610784891547L1014.3572661617019 360.99610784891547L1014.3572661617019 419.34198732974903Q1014.3572661617019 428.6852316975071 1019.4381845490022 432.74996640734753Q1024.5191029363027 436.81470111718784 1034.0599385746782 436.81470111718784L1034.0599385746782 436.81470111718784Q1039.9594493688214 436.81470111718784 1046.2541427041992 435.6009261691105Q1052.548836039577 434.38715122103315 1060.0855316474058 431.5361914592702L1060.0855316474058 431.5361914592702L1060.0855316474058 444.94417053686857Q1053.3674284464198 447.37172043302326 1046.8751438404247 448.69840467859615Q1040.3546319100556 450.02508892416904 1033.8623473040607 450.02508892416904ZM1138.134083541216 325.23208786719493L1138.134083541216 325.23208786719493Q1132.827346558924 325.23208786719493 1129.0731124171966 321.4778537254674Q1125.3188782754692 317.72361958373983 1125.3188782754692 312.64270119643936L1125.3188782754692 312.64270119643936Q1125.3188782754692 307.36419153852165 1129.0731124171966 303.69463936991576Q1132.827346558924 300.0250872013099 1138.134083541216 300.0250872013099L1138.134083541216 300.0250872013099Q1143.4125931991334 300.0250872013099 1147.166827340861 303.69463936991576Q1150.9210614825886 307.36419153852165 1150.9210614825886 312.64270119643936L1150.9210614825886 312.64270119643936Q1150.9210614825886 317.72361958373983 1147.166827340861 321.4778537254674Q1143.4125931991334 325.23208786719493 1138.134083541216 325.23208786719493ZM1162.9176743414926 450.02508892416904L1162.9176743414926 450.02508892416904Q1147.2797366383566 450.02508892416904 1138.9244486236848 442.7142119113312Q1130.5973879333867 435.4033348984933 1130.5973879333867 420.75335354844367L1130.5973879333867 420.75335354844367L1130.5973879333867 360.99610784891547L1093.8171842742063 360.99610784891547L1093.8171842742063 348.8019037193943L1145.4449605540538 348.8019037193943L1145.4449605540538 419.34198732974903Q1145.4449605540538 428.6852316975071 1149.9048778051285 432.74996640734753Q1154.3930223805773 436.81470111718784 1163.1152656121099 436.81470111718784L1163.1152656121099 436.81470111718784Q1168.3937752700274 436.81470111718784 1173.8981035229363 435.68560814223224Q1179.374204451471 434.58474249165045 1186.0923076524573 431.93137400050466L1186.0923076524573 431.93137400050466L1186.0923076524573 445.33935307810304Q1180.192796858314 447.37172043302326 1174.4061953616663 448.69840467859615Q1168.6195938650185 450.02508892416904 1162.9176743414926 450.02508892416904ZM1235.4618979823936 447.99272156924883L1220.6425526861003 447.99272156924883L1220.6425526861003 348.8019037193943L1235.4618979823936 348.8019037193943L1235.4618979823936 364.8632512881386Q1246.8657370294454 347.1929462300825 1266.9635919836564 347.1929462300825L1266.9635919836564 347.1929462300825Q1277.7464298944828 347.1929462300825 1285.762990016668 351.76577277865294Q1293.807777463227 356.3385993272233 1298.3806040117975 364.55275072002576Q1302.953430560368 372.79512943720204 1302.953430560368 383.77555861864585L1302.953430560368 383.77555861864585L1302.953430560368 447.99272156924883L1288.1058579397009 447.99272156924883L1288.1058579397009 388.03788459910345Q1288.1058579397009 374.82749679212225 1280.9078902243587 367.20611921117154Q1273.6816951846426 359.58474163022083 1261.4874910551212 359.58474163022083L1261.4874910551212 359.58474163022083Q1253.3580216354408 359.58474163022083 1246.6399184344546 363.45188506944396Q1239.9500425578422 367.3190285086671 1235.4618979823936 374.82749679212225L1235.4618979823936 374.82749679212225L1235.4618979823936 447.99272156924883Z " fill="#b88746" transform="matrix(0.6715512254006382,0,0,0.671551225400638,0,48.15143319910044)"/></g></svg>