 <!DOCTYPE svg PUBLIC "-//W3C//DTD SVG 1.1//EN" "http://www.w3.org/Graphics/SVG/1.1/DTD/svg11.dtd">

<svg id="e6c05d67-6011-4984-abcc-64f41e93bfdc" data-name="Layer 1" xmlns="http://www.w3.org/2000/svg" width="865.76" height="682.89" viewBox="0 0 865.76 682.89">

<defs>

<style xmlns="http://www.w3.org/1999/xhtml">*, ::after, ::before { box-sizing: border-box; }
img, svg { vertical-align: middle; }
</style>

<style xmlns="http://www.w3.org/1999/xhtml">*, body, html { -webkit-font-smoothing: antialiased; }
img, svg { max-width: 100%; }
</style>

</defs>

<g id="a823c992-61d1-4252-b181-4d7b32d43889" data-name="freepik--background-complete--inject-35">

<path d="M841,575.56v.57c-134.93,1.55-270.24-1-404.28-18.56l-8.26-1.11q-27.18-3.68-54.3-8.17-30.51-4.89-61.07-10.23c-2.89-.49-5.8-1-8.69-1.52Q213,520.33,122.49,500.1v-.83Q197.15,515.2,272,529.42q18.93,3.55,37.86,7c2.77.52,5.53,1,8.31,1.52,37.35,6.79,74.79,13.16,112.34,18.23l8.16,1.1q25.49,3.27,51.07,5.75c98.1,8.94,198.78,11.42,297.21,12.4q25.86.18,51.75.15Z" fill="#dbdbdb"/>

<path d="M95.13,265.51v.57q-35.17.44-70.4.38v-1.29c5.47.08,10.94.13,16.41.19q25.89.17,51.76.15Z" fill="#dbdbdb"/>

<path d="M841,285.82v.88q-23.56,1.2-47.12,2.26c-121.48,5.24-243.16,8.39-364.69,3.36-102.24-5-205-13.16-306.73-25.93v-.94c102,11.7,204.29,21.37,306.77,26.23,121.53,4.38,243.12.31,364.6-3.92C809.52,287.24,825.28,286.54,841,285.82Z" fill="#dbdbdb"/>

<path d="M841,524.33v.85c-60.21,9.28-120.81,17.12-181.4,23.67q-8.21.9-16.32,1.74-56.43,5.89-112.8,10.34c-70.66,5.17-141.43,7.67-212.24,8.65h-5.09c-48,.64-96,.57-144,.2-15.47-.23-31-.36-46.64-.57v-.85q23.31.18,46.64.24c45.08,0,90.2,0,135.3-.54H310c73.55-.8,147.08-2.8,220.5-7.77,40.69-3.15,81.37-7.12,122-11.65l18.62-2.11C727.81,540,784.51,532.33,841,524.33Z" fill="#dbdbdb"/>

<path d="M87.12,320v.84q-31.14,4.9-62.39,9.1v-1.24Q56,324.42,87.12,320Z" fill="#dbdbdb"/>

<path d="M122.49,323.16V324q90.32,13.92,181.4,23.67c5.45.6,10.92,1.18,16.33,1.75q56.43,5.91,112.79,10.33c70.68,5.18,141.45,7.67,212.24,8.65h5.08c48,.64,96,.58,144,.2,15.48-.23,31-.36,46.64-.57v-.85q-23.31.18-46.64.24c-45.09,0-90.22,0-135.31-.53h-5.45c-73.47-.8-147.1-2.81-220.51-7.78-40.67-3.15-81.36-7.11-122-11.65q-9.33-1-18.63-2.11C235.7,338.78,179,331.16,122.49,323.16Z" fill="#dbdbdb"/>

<path d="M77.24,499.54v.89q-23.56,1.2-47.12,2.25l-5.39.23v-1.18l5.34-.18C45.75,501,61.5,500.26,77.24,499.54Z" fill="#dbdbdb"/>

<path d="M82.19,569.16V570c-15.58.21-31.19.34-46.66.57H24.73v-1.26h10.8Q58.87,569.34,82.19,569.16Z" fill="#dbdbdb"/>

<rect x="87.12" y="232.6" width="35.36" height="451.98" fill="#dbdbdb"/>

<rect x="122.49" y="259.03" width="9.88" height="13.03" fill="#dbdbdb"/>

<rect x="122.49" y="492.72" width="9.88" height="13.03" fill="#dbdbdb"/>

<rect x="122.49" y="561.08" width="9.88" height="13.03" fill="#dbdbdb"/>

<rect x="77.24" y="259.03" width="9.88" height="13.03" fill="#dbdbdb"/>

<rect x="77.24" y="492.72" width="9.88" height="13.03" fill="#dbdbdb"/>

<rect x="122.49" y="315.71" width="9.88" height="13.03" fill="#dbdbdb"/>

<rect x="77.24" y="315.71" width="9.88" height="13.03" fill="#dbdbdb"/>

<rect x="77.24" y="561.08" width="9.88" height="13.03" fill="#dbdbdb"/>

<path d="M788.1,437.91c-15.7,0-280.07,1.73-296.69,1.21a1.29,1.29,0,0,1-.64-2.38c10.47-5.18,22.35-4.15,33.23-7.81,6.41-2.15,10.35-6.35,14.79-11.15a30.8,30.8,0,0,1,13.76-9,29.13,29.13,0,0,1,15-.47c5.36,1.27,10,4.36,15.14,6.29,12.7,4.8,25,.24,34.1-9.16,7.49-7.74,14.84-15,25-19.23,8.51-3.5,18-4.22,26.48-.36,9.7,4.39,16.33,13.22,25.45,18.54,10.81,6.3,23.71,4.82,35.64,6.71s21.08,11.95,31.55,17.75a22.42,22.42,0,0,0,11.42,3.53c2.34,0,4.64-.69,7-1,3.59-.45,7-.35,9.43,2.66C789.26,434.8,789.15,437.91,788.1,437.91Z" fill="#ebebeb"/>

<path d="M639.94,70.25c-11.43,0-204.49,1.27-216.62.88-.86,0-1.34-1.31-.47-1.73,7.66-3.79,16.33-3,24.28-5.7,4.67-1.63,7.54-4.64,10.79-8.16A22.31,22.31,0,0,1,468,49a21.47,21.47,0,0,1,10.94-.35c3.91,1,7.31,3.27,11.05,4.61,9.27,3.49,18.28.16,24.9-6.7,5.47-5.64,10.82-11,18.25-14a24.2,24.2,0,0,1,19.33-.26c7.08,3.27,11.93,9.65,18.59,13.54,7.89,4.6,17.31,3.51,26,4.89s15.4,8.72,23,12.93a16.07,16.07,0,0,0,8.32,2.58,45.18,45.18,0,0,0,5.06-.7c2.63-.32,5.13-.26,6.91,1.94C640.78,68,640.69,70.25,639.94,70.25Z" fill="#ebebeb"/>

<path d="M503.74,221.53c-.22.65-304.22,0-300.4,0,1.76,0-2.65-2.61-.93-3.46,9.89-4.9,20.72-5,31.49-6,6.29-.57,12.75-1.49,18.4-4.46s9.31-8.16,13.37-13.06a57.13,57.13,0,0,1,51.92-19.59c21.61,3.38,38.64,19.85,60.29,22.86,13.06,1.82,25.32-3.27,38-5,10.47-1.46,19.19.58,28.56,5.22,6.85,3.4,13.19,6.25,20.94,6.79,6,.43,11.92-.26,18-.32A40,40,0,0,1,509.61,215C510.61,215.85,513.66,221.53,503.74,221.53Z" fill="#ebebeb"/>

<path d="M561.27,206.82a59.56,59.56,0,0,1,7.3-3.71,31.27,31.27,0,0,1,8.08-2.43,6.9,6.9,0,0,1,2.56.12,3.26,3.26,0,0,1,.8.32l.54.33c.34.21.62.44.91.65a38.07,38.07,0,0,1,3.25,2.83c2,2,3.77,4,5.55,6.12l-2.07-.57a62.25,62.25,0,0,1,8.24-2.32,33.82,33.82,0,0,1,4.36-.59,15.23,15.23,0,0,1,2.34,0,7.83,7.83,0,0,1,1.27.21,10.29,10.29,0,0,1,1.29.53,14.2,14.2,0,0,1,3.51,2.95,38.4,38.4,0,0,1,2.7,3.27,52.94,52.94,0,0,1,4.39,7.21c-1.95-2-3.82-4.1-5.8-6-1-1-2-1.91-3-2.75a13.72,13.72,0,0,0-3.1-2.09,7.52,7.52,0,0,0-3.27-.12,32,32,0,0,0-3.87.8c-2.59.64-5.24,1.47-7.77,2.34l-1.26.44-.81-1c-1.64-2.06-3.43-4.08-5.19-6a37,37,0,0,0-2.72-2.74c-.22-.19-.45-.41-.68-.57l-.31-.23-.13-.08a4,4,0,0,0-1.45-.18,39.94,39.94,0,0,0-7.69,1.26C566.53,205.43,563.91,206.23,561.27,206.82Z" fill="#dbdbdb"/>

<path d="M612.47,241.06a49.51,49.51,0,0,1,4.44-5.16,25.91,25.91,0,0,1,5.43-4.41,6.14,6.14,0,0,1,2-.72,4.33,4.33,0,0,1,.72,0,4.5,4.5,0,0,1,.51.08,4.66,4.66,0,0,1,.93.21,33.29,33.29,0,0,1,3.26,1.18c2.14.87,4.15,1.89,6.19,2.94l-1.78.21a53.63,53.63,0,0,1,5.6-4.37A32.09,32.09,0,0,1,643,229.2a11.19,11.19,0,0,1,1.79-.73,6.14,6.14,0,0,1,1-.23,11.22,11.22,0,0,1,1.16,0,13.09,13.09,0,0,1,3.62,1.16c1.1.52,2.11,1.11,3.12,1.63a45.69,45.69,0,0,1,5.63,4.16c-2.12-.94-4.21-1.94-6.33-2.77a32.61,32.61,0,0,0-3.17-1.18,11.82,11.82,0,0,0-3.07-.52,6.46,6.46,0,0,0-2.58,1,27.41,27.41,0,0,0-2.72,1.82c-1.78,1.32-3.55,2.79-5.23,4.24l-.83.74-.95-.53c-1.91-1.06-3.92-2-5.88-3a28.28,28.28,0,0,0-2.95-1.24,5.73,5.73,0,0,0-.7-.23h-.44a3.68,3.68,0,0,0-1.18.31,33.79,33.79,0,0,0-5.5,3.4C616,238.33,614.23,239.7,612.47,241.06Z" fill="#dbdbdb"/>

<path d="M206.44,46.73a48,48,0,0,1,3.87-5.6,26.44,26.44,0,0,1,4.9-4.9,6.16,6.16,0,0,1,1.91-.93,4.41,4.41,0,0,1,.72-.08h.52a2.64,2.64,0,0,1,.93.11c1.21.22,2.32.51,3.44.82,2.23.64,4.33,1.44,6.54,2.27l-1.75.39a53.77,53.77,0,0,1,5.11-4.9,28.31,28.31,0,0,1,2.94-2.14,13.6,13.6,0,0,1,1.63-.91,9.22,9.22,0,0,1,1-.34,7.37,7.37,0,0,1,1.14-.13,12.58,12.58,0,0,1,3.74.76,33.64,33.64,0,0,1,3.27,1.37,45.8,45.8,0,0,1,6.06,3.53c-2.22-.72-4.41-1.47-6.62-2.09a30.43,30.43,0,0,0-3.26-.81,10.72,10.72,0,0,0-3.09-.31A6.28,6.28,0,0,0,237,34a28.15,28.15,0,0,0-2.52,2.11c-1.63,1.5-3.26,3.15-4.73,4.78l-.77.82-1-.43c-2-.84-4.1-1.63-6.16-2.35a32,32,0,0,0-3.07-.93L218,37.9h-.44a3.18,3.18,0,0,0-1.14.44,31.69,31.69,0,0,0-5.13,3.95C209.72,43.63,208.11,45.19,206.44,46.73Z" fill="#dbdbdb"/>

<path d="M475.93,389.49a69.85,69.85,0,0,1,8.41-5.76,39.1,39.1,0,0,1,9.55-4.31,8.38,8.38,0,0,1,3.19-.26,3.78,3.78,0,0,1,1,.26l.7.31c.46.21.83.44,1.24.67a43.19,43.19,0,0,1,4.38,3c2.77,2.07,5.3,4.32,7.85,6.64l-2.66-.39a79,79,0,0,1,9.8-4.18A41.41,41.41,0,0,1,524.7,384a17.46,17.46,0,0,1,2.87-.36,8.87,8.87,0,0,1,1.63,0,11.6,11.6,0,0,1,1.64.42,18.34,18.34,0,0,1,4.8,3.07,51.52,51.52,0,0,1,3.87,3.67A66.62,66.62,0,0,1,546,399c-2.71-2.19-5.37-4.43-8.17-6.45-1.35-1-2.74-2-4.14-2.92a17.12,17.12,0,0,0-4.17-2.08,9.41,9.41,0,0,0-4.08.39,39.76,39.76,0,0,0-4.63,1.64c-3.11,1.22-6.22,2.67-9.21,4.14l-1.49.75L509,393.33c-2.37-2.27-4.9-4.48-7.37-6.53a44.5,44.5,0,0,0-3.78-2.94,9.37,9.37,0,0,0-.95-.59l-.42-.23-.17-.08a5.12,5.12,0,0,0-1.83,0,49.3,49.3,0,0,0-9.27,2.81C482.17,386.91,479.08,388.23,475.93,389.49Z" fill="#dbdbdb"/>

</g>

<g id="ff3f19d8-a278-4f57-b55f-738b962b8be5" data-name="freepik--Wires--inject-35">

<path d="M865.76,167.42v2.68c-70-.39-140-1.88-210-4.9L643,164.63c-70.91-3.26-141.71-8-212.34-14.87-72.38-7.2-145.12-18.33-217.12-28.64C142.63,110.38,71,98.69,0,85.53V82.79c119,21.45,238.26,41.63,358.24,57.5,101.95,11.51,204.32,18.06,306.94,22l13,.49C740.68,165.06,803.22,166.41,865.76,167.42Z" fill="#23223a" data-secondary="true"/>

<path d="M865.76,352.77v2.79C650.28,375,433.83,387,217.29,384.43c-59.89-.26-124.12-1.63-183.92-3.92L0,379.11v-2.45c121.43,4.52,243,7.62,364.45,6.25C531.87,378.58,698.9,366.36,865.76,352.77Z" fill="#23223a" data-secondary="true"/>

<path d="M865.76,529.86v2.73c-68,14.15-136.48,27.11-204.84,38.8-4.58.79-9.16,1.64-13.73,2.32q-16.05,2.74-32.08,5.34-116.57,20.1-234,34.73l-2.44.31c-125.71,15.85-252,27.75-378.37,37.54H0v-2.75C122.94,638.15,246.08,627.23,368.69,613l2.5-.3q68.1-7.92,135.89-17.4,60.26-9.13,120.37-19.82c3.69-.65,7.36-1.29,11-2C714.46,560,790.25,545.06,865.76,529.86Z" fill="#23223a" data-secondary="true"/>

</g>

<path d="M748,85.63c-12,58.29-74.7,57.11-74.7,57.11-50.57-1.1-62.72-56.31-63.12-58.31a14.25,14.25,0,0,0,2.53,2.9A46.3,46.3,0,0,1,618,92.84a9,9,0,0,0,2.94,2.36c4.8,2.27,18.57,6.6,39.37-4.49a18.29,18.29,0,0,0,11,9.25c13.11,3.9,14.41-3.22,14.41-3.22,12.47.42,10.53-3.66,10.53-3.66,11.62-3.43,10.74-6.65,10.74-6.65,4.9-1,7-2.66,7.84-4.29Z" fill="#30e8a8" data-primary="true"/>

<path d="M748,85.63c-12,58.29-74.7,57.11-74.7,57.11-50.57-1.1-62.72-56.31-63.12-58.31a14.25,14.25,0,0,0,2.53,2.9A46.3,46.3,0,0,1,618,92.84a9,9,0,0,0,2.94,2.36c4.8,2.27,18.57,6.6,39.37-4.49a18.29,18.29,0,0,0,11,9.25c13.11,3.9,14.41-3.22,14.41-3.22,12.47.42,10.53-3.66,10.53-3.66,11.62-3.43,10.74-6.65,10.74-6.65,4.9-1,7-2.66,7.84-4.29Z" fill="#fff" opacity="0.7"/>

<path d="M741.51,68.78s19-20.4,29-36.06c0,0,4.24-13.16,14.19-3.65a7.5,7.5,0,0,0,7.17,3.51s14.39-3,16.56,1.79v3.18l-5.15,7-23.7,16.68-22.09,13Z" fill="#30e8a8" data-primary="true"/>

<path d="M709.3,90.77s11.43,2.1,28,0" fill="none" stroke="#000" stroke-miterlimit="10" stroke-width="0.1"/>

<path d="M698.45,96.67s15.61,1.53,26.85.76" fill="none" stroke="#000" stroke-miterlimit="10" stroke-width="0.1"/>

<path d="M686.84,102.38s10.16,1.06,24.22,1.1" fill="none" stroke="#000" stroke-miterlimit="10" stroke-width="0.1"/>

<path d="M644.25,160.77l-.58-.64,14.83-13.42a5.38,5.38,0,0,0,1.6-2.67l.7-2.81.83.21-.7,2.81a6.15,6.15,0,0,1-1.85,3.09Z" fill="#23223a" data-secondary="true"/>

<path d="M627.27,166.46l-.52-.69c.39-.29,9.47-7.09,17.07-5.74a9.64,9.64,0,0,1,6.61,4.55l-.73.46a8.83,8.83,0,0,0-6-4.16C636.44,159.59,627.36,166.39,627.27,166.46Z" fill="#23223a" data-secondary="true"/>

<path d="M637.39,168.46l-.8-.33c.15-.36,3.67-8.92,9.54-7.38l-.22.84C640.79,160.24,637.42,168.37,637.39,168.46Z" fill="#23223a" data-secondary="true"/>

<path d="M666.51,171.71l-.68-.54c.25-.31,6.15-7.56,13.38-8.2a11.17,11.17,0,0,1,8.53,3l-.56.65a10.36,10.36,0,0,0-7.9-2.76C672.43,164.43,666.56,171.64,666.51,171.71Z" fill="#23223a" data-secondary="true"/>

<path d="M676.57,171.5l-.85-.12c.06-.35,1.35-8.56,6.42-8.38l0,.86H682C677.79,163.86,676.58,171.43,676.57,171.5Z" fill="#23223a" data-secondary="true"/>

<polygon points="680.12 163.72 679.49 163.14 694.66 146.69 697.01 135.56 697.85 135.73 695.46 147.1 695.38 147.19 680.12 163.72" fill="#23223a" data-secondary="true"/>

<path d="M662.5,86.68l74.79,5.7C725.12,111.21,699,112.44,699,112.44c-31.78,1.56-40.6-20.73-40.6-20.73Z" opacity="0.2"/>

<path d="M625.29,105.86a2.88,2.88,0,0,1,1.72,2.5,2.6,2.6,0,0,1-1.21-1A2.66,2.66,0,0,1,625.29,105.86Z" fill="#fff"/>

<path d="M631.72,105.86a2.87,2.87,0,0,1,1.3,1,2.83,2.83,0,0,1,.62,1.51,3.12,3.12,0,0,1-1.92-2.5Z" fill="#fff"/>

<path d="M631.72,115.56a2,2,0,0,1,1.51,2,2,2,0,0,1-1.1-.71A1.92,1.92,0,0,1,631.72,115.56Z" fill="#fff"/>

<path d="M638.91,122a1.94,1.94,0,0,1,1.1.72,1.89,1.89,0,0,1,.41,1.24,1.92,1.92,0,0,1-1.09-.71A1.87,1.87,0,0,1,638.91,122Z" fill="#fff"/>

<path d="M645.48,122a1.89,1.89,0,0,1,1.09.72,2,2,0,0,1,.42,1.24,2,2,0,0,1-1.51-2Z" fill="#fff"/>

<path d="M654.26,122.49a2,2,0,0,1,1.1.71,1.91,1.91,0,0,1,.41,1.24,1.83,1.83,0,0,1-1.09-.71A2,2,0,0,1,654.26,122.49Z" fill="#fff"/>

<path d="M662.79,121.51a2,2,0,0,1,1.51,2,2,2,0,0,1-1.51-2Z" fill="#fff"/>

<path d="M670.9,120.53a2,2,0,0,1,1.1.71,1.92,1.92,0,0,1,.41,1.25,2,2,0,0,1-1.51-2Z" fill="#fff"/>

<path d="M640.79,128.51a1.91,1.91,0,0,1,1.1.72,1.89,1.89,0,0,1,.41,1.24,1.92,1.92,0,0,1-1.09-.71A2,2,0,0,1,640.79,128.51Z" fill="#fff"/>

<path d="M651.83,129.49a1.91,1.91,0,0,1,1.1.72,1.89,1.89,0,0,1,.41,1.24,1.89,1.89,0,0,1-1.09-.72A1.93,1.93,0,0,1,651.83,129.49Z" fill="#fff"/>

<path d="M656.45,136.3a1.91,1.91,0,0,1,1.1.72,2,2,0,0,1,.42,1.24,1.92,1.92,0,0,1-1.1-.71A2,2,0,0,1,656.45,136.3Z" fill="#fff"/>

<path d="M665.45,134.85a1.89,1.89,0,0,1,1.09.72,1.93,1.93,0,0,1,.42,1.24,2,2,0,0,1-1.51-2Z" fill="#fff"/>

<path d="M673.89,134.85a1.91,1.91,0,0,1,1.1.72,1.87,1.87,0,0,1,.41,1.24,1.89,1.89,0,0,1-1.09-.72A2,2,0,0,1,673.89,134.85Z" fill="#fff"/>

<path d="M683.63,132.3a1.89,1.89,0,0,1,1.09.72,1.82,1.82,0,0,1,.42,1.24,1.94,1.94,0,0,1-1.1-.72A1.89,1.89,0,0,1,683.63,132.3Z" fill="#fff"/>

<path d="M680.33,136.3a1.94,1.94,0,0,1,1.1.72,1.89,1.89,0,0,1,.41,1.24,2,2,0,0,1-1.51-2Z" fill="#fff"/>

<path d="M670.9,139.54a1.94,1.94,0,0,1,1.1.72,1.89,1.89,0,0,1,.41,1.24,2,2,0,0,1-1.51-2Z" fill="#fff"/>

<path d="M660.87,129a2,2,0,0,1,1.51,1.95,1.85,1.85,0,0,1-1.1-.71A1.91,1.91,0,0,1,660.87,129Z" fill="#fff"/>

<path d="M677.74,128a2,2,0,0,1,1.1.71,1.92,1.92,0,0,1,.41,1.25,1.89,1.89,0,0,1-1.09-.72A2,2,0,0,1,677.74,128Z" fill="#fff"/>

<path d="M670.15,128a1.92,1.92,0,0,1,1.09.71,2,2,0,0,1,.42,1.25,1.88,1.88,0,0,1-1.1-.72A1.91,1.91,0,0,1,670.15,128Z" fill="#fff"/>

<path d="M639.31,114.58a2,2,0,0,1,1.51,2,1.83,1.83,0,0,1-1.09-.71A2,2,0,0,1,639.31,114.58Z" fill="#fff"/>

<path d="M646.61,115.56a1.89,1.89,0,0,1,1.09.72,2,2,0,0,1,.42,1.24,2,2,0,0,1-1.51-2Z" fill="#fff"/>

<path d="M654.26,115.56a1.94,1.94,0,0,1,1.1.72,1.89,1.89,0,0,1,.41,1.24,1.92,1.92,0,0,1-1.09-.71A2,2,0,0,1,654.26,115.56Z" fill="#fff"/>

<path d="M662,114.58a1.94,1.94,0,0,1,1.1.72,1.91,1.91,0,0,1,.41,1.24,1.83,1.83,0,0,1-1.09-.71A1.92,1.92,0,0,1,662,114.58Z" fill="#fff"/>

<path d="M640.07,107.11a3.4,3.4,0,0,1,1.44,3,3,3,0,0,1-1.11-1.29A3.06,3.06,0,0,1,640.07,107.11Z" fill="#fff"/>

<path d="M646.64,107.57a3.18,3.18,0,0,1,1.11,1.3,3,3,0,0,1,.33,1.67,3.11,3.11,0,0,1-1.11-1.3A3.23,3.23,0,0,1,646.64,107.57Z" fill="#fff"/>

<path d="M655.77,107.57a3.11,3.11,0,0,1,1.11,1.3,3,3,0,0,1,.33,1.67,3.18,3.18,0,0,1-1.11-1.3A3.23,3.23,0,0,1,655.77,107.57Z" fill="#fff"/>

<path d="M670.23,99.61s19.41,15.9,59.59-3c0,0,28.28-15,33.36-24.38,0,0,55.39-29.65,45.25-37.84,0,0-1.56,7-12.49,14.82,0,0-17.55,11.71-31.79,20.09,0,0-4.85.49-6.89,1.8,0,0,1.6-4.55-8-1,0,0-2-2.53-9.29-1.07l-8.09,1.26-28.25,1.51Z" fill="#e6e7e8"/>

<path d="M723.26,73.12c1.63-.14,3.24-.31,4.85-.47s3.21-.38,4.81-.62,3.18-.51,4.77-.82,3.15-.7,4.74-1.1a26.69,26.69,0,0,1-4.58,1.75,36.1,36.1,0,0,1-4.81,1A38.14,38.14,0,0,1,723.26,73.12Z" fill="#d1d3d4"/>

<path d="M722.25,79.16c1.35-.23,2.7-.43,4-.67s2.69-.45,4-.7c2.68-.5,5.36-1,8-1.59s5.31-1.22,7.93-2c.66-.17,1.31-.39,2-.58s1.3-.41,1.94-.64c1.31-.39,2.56-.93,3.85-1.41a44.69,44.69,0,0,1-7.55,3.26,75.26,75.26,0,0,1-8,2.16q-4,.87-8.1,1.4C727.72,78.79,725,79.07,722.25,79.16Z" fill="#d1d3d4"/>

<path d="M716.92,84.87c1.76,0,3.52,0,5.27-.11s3.51-.18,5.25-.33c3.49-.31,7-.74,10.41-1.39A77.64,77.64,0,0,0,748,80.47l2.47-.87c.84-.27,1.61-.68,2.43-1,1.65-.61,3.15-1.53,4.74-2.29a45.67,45.67,0,0,1-9.42,4.8A69.66,69.66,0,0,1,738,83.88a84.91,84.91,0,0,1-10.52,1.2A70.33,70.33,0,0,1,716.92,84.87Z" fill="#d1d3d4"/>

<path d="M723.27,73.12S725.63,77,714,77.18c0,0,2,2.45.74,5-.8,1.64-3,3.27-7.84,4.29,0,0,.88,3.23-10.74,6.65,0,0,2,4.09-10.53,3.66,0,0-1.31,7.12-14.4,3.22a18.29,18.29,0,0,1-11-9.25c-20.79,11.09-34.58,6.76-39.37,4.5A9.1,9.1,0,0,1,618,92.84a46.44,46.44,0,0,0-5.23-5.52,14,14,0,0,1-2.52-2.9h0a10.26,10.26,0,0,1-1.11-2.13c-2.49-6.34-5.09-9-5.25-9.15h0l2.2-16.26a21,21,0,0,1,4.18-12c2.66-3.7,7-7.48,14.17-10.08,0,0,20.84-7.93,37.39,14.84,0,0,.77,1.52,2,3.52l.34.57c1.92,3.11,4.75,7,7.37,8.16,0,0,27.71-3.44,60.39,8.38A23.12,23.12,0,0,1,723.27,73.12Z" fill="#30e8a8" data-primary="true"/>

<path d="M664.1,64.38c-8,4.66-8,16.9-8,16.9-23.18,24.79-43.58,0-43.58,0-4.52-6.63-8.4-8.08-8.64-8.15h0l2.2-16.26a21,21,0,0,1,4.18-12c22.36-13.62,38.27-.66,38.27-.66a33.78,33.78,0,0,0,15.26,8.94l.34.57c-8.67,7.54-26.71-.75-26.71-.75-9.37-2.46-16.06.71-16.06.71-6.74,1.68-9.76,8.94-10.53,11.14a.38.38,0,0,0,.45.49,61.31,61.31,0,0,1,17.21-1A26.8,26.8,0,0,1,635.62,66c7.69,2.89,13,.29,13,.29C660.75,61,664.1,64.38,664.1,64.38Z" fill="#e6e7e8"/>

<circle cx="627.01" cy="58.49" r="8.81" fill="#fff"/>

<circle cx="626.84" cy="58.51" r="5.78" fill="#23223a" data-secondary="true"/>

<circle cx="628.23" cy="54.84" r="2.96" fill="#fff"/>

<path d="M606.05,56.85s-24.82,2.76-22.34,5.51l20.13,10.76a9.64,9.64,0,0,1,5.45-4.45s2.29-1.74-.44-4.48C608.85,64.19,610.36,59.45,606.05,56.85Z" fill="#23223a" data-secondary="true"/>

<path d="M744.64,68.6l8.13-8.32c2.66-2.82,5.35-5.6,7.9-8.52s5.11-5.82,7.52-8.84c1.22-1.51,2.4-3,3.53-4.61A54.19,54.19,0,0,0,775,33.49a63.07,63.07,0,0,1-6.25,9.83c-2.32,3.13-4.84,6.1-7.41,9S756,58,753.24,60.74l-4.23,4C747.55,66,746.11,67.34,744.64,68.6Z" opacity="0.2"/>

<path d="M749.24,70.11,758.79,62c3.17-2.72,6.36-5.43,9.48-8.22s6.22-5.57,9.25-8.44l2.25-2.18,2.17-2.25c.74-.74,1.4-1.55,2.1-2.32a14.68,14.68,0,0,0,1-1.23l1-1.24a56.2,56.2,0,0,1-8,9.69c-3,3-6,5.82-9.16,8.62s-6.35,5.46-9.62,8.08S752.64,67.67,749.24,70.11Z" opacity="0.2"/>

<path d="M756.81,69.22l5.47-3.63c1.82-1.21,3.64-2.42,5.44-3.65,3.62-2.46,7.24-4.91,10.77-7.48s7.08-5.11,10.5-7.82c.87-.66,1.72-1.34,2.55-2s1.71-1.37,2.51-2.1,1.65-1.43,2.46-2.17l2.37-2.26a81.34,81.34,0,0,1-9.47,9.09c-3.35,2.83-6.88,5.44-10.42,8s-7.2,5-10.9,7.33S760.65,67.11,756.81,69.22Z" opacity="0.2"/>

<path d="M678.86,565.69a19,19,0,0,1,4.74-1.57,20.08,20.08,0,0,1,5-.4,15.52,15.52,0,0,1,4.93,1.13,11.4,11.4,0,0,1,4,3,15.82,15.82,0,0,0-4.27-2.35,19.38,19.38,0,0,0-4.73-.89,29.2,29.2,0,0,0-4.85.19A40.82,40.82,0,0,0,678.86,565.69Z" fill="#23223a" data-secondary="true"/>

<path d="M682.65,567.86a8.7,8.7,0,0,1,1.64-1.57,12,12,0,0,1,1.93-1.2,9,9,0,0,1,2.17-.75,4.79,4.79,0,0,1,2.29,0,18,18,0,0,0-4.06,1.54C685.31,566.53,684,567.24,682.65,567.86Z" fill="#23223a" data-secondary="true"/>

<line x1="697.56" y1="558.37" x2="689.42" y2="564.14" fill="none" stroke="#2f2e41" stroke-miterlimit="10"/>

<path d="M727.64,559.41s10,10.31,4.7,59.65c0,0-2.23,10.43,2.5,9.57,0,0,3.46,0,6.43-7.44,0,0,1.07,6.69,6.38,7.49,0,0,3.41,1.23,4.68-9.4,0,0,2.13,9.54,8.09,9.45,0,0,4.84-.27.93-25.05a65.41,65.41,0,0,0-2.37-10c-3.26-10.13-11.38-34.45-16.87-43.3Z" fill="#bcbec0"/>

<path d="M736.26,565.69a71.21,71.21,0,0,1,2.43,10.61c.57,3.59.9,7.21,1.16,10.84.06,1.81.16,3.63.16,5.44s0,3.64,0,5.45-.2,3.63-.3,5.44-.35,3.61-.57,5.41c.08-3.63.2-7.24.17-10.86s-.1-7.23-.31-10.83-.52-7.21-1-10.79q-.3-2.7-.75-5.37T736.26,565.69Z" fill="#d1d3d4"/>

<path d="M740.85,566.38a107.2,107.2,0,0,1,3.44,11c1,3.72,1.73,7.5,2.4,11.29s1,7.64,1.26,11.48a75.19,75.19,0,0,1-.27,11.53c0-1.92.05-3.83-.09-5.75s-.19-3.82-.34-5.73c-.36-3.81-.78-7.62-1.46-11.38s-1.35-7.54-2.18-11.28c-.41-1.87-.84-3.74-1.32-5.6S741.35,568.23,740.85,566.38Z" fill="#d1d3d4"/>

<path d="M741.6,555.49c2,4.19,3.84,8.49,5.52,12.84s3.16,8.78,4.56,13.23,2.55,9,3.56,13.53a128.7,128.7,0,0,1,2.28,13.79c-.49-2.28-.83-4.58-1.38-6.84-.26-1.14-.48-2.28-.75-3.41l-.83-3.38c-1.14-4.51-2.33-9-3.74-13.43S748,573,746.47,568.57q-1.15-3.29-2.38-6.56C743.3,559.83,742.45,557.66,741.6,555.49Z" fill="#d1d3d4"/>

<path d="M734.78,493.32s16.76,25.33,25.23,56.74a10.84,10.84,0,0,1,.2,5c-.46,2.21-1.71,3.84-5-1.82,0,0-2.08,8.06-5.76-2.54,0,0-4.33,1.22-6.89-7.11l-11.31-18.39Z" fill="#d1d3d4"/>

<path d="M756.8,546.13c-1.42-2.53-2.76-5.09-4.1-7.65s-2.65-5.14-4-7.72l-3.9-7.74c-.64-1.29-1.3-2.57-2-3.86s-1.34-2.56-2-3.84a79.07,79.07,0,0,1,4.6,7.38c1.43,2.51,2.78,5.08,4.09,7.66s2.58,5.18,3.78,7.81S755.72,543.44,756.8,546.13Z" fill="#bcbec0"/>

<path d="M742.54,529.52a58.86,58.86,0,0,1,4.24,8.05,59.91,59.91,0,0,1,3.11,8.56c-1.46-2.68-2.7-5.43-3.93-8.19S743.56,532.39,742.54,529.52Z" fill="#bcbec0"/>

<path d="M742.54,539.22a16.57,16.57,0,0,1,2,3.29,19,19,0,0,1,1.32,3.62,11.79,11.79,0,0,1-2.14-3.23A12.93,12.93,0,0,1,742.54,539.22Z" fill="#bcbec0"/>

<path d="M653,482s-7.69,54.68,31.29,72.54c0,0,21.67,13.85,57.29,1,0,0,3.46-26.42-1.87-44.71L713.27,489,680.8,469.66l-18,.49Z" fill="#30e8a8" data-primary="true"/>

<path d="M653,482s-7.69,54.68,31.29,72.54c0,0,21.67,13.85,57.29,1,0,0,3.46-26.42-1.87-44.71L713.27,489,680.8,469.66l-18,.49Z" fill="#fff" opacity="0.2"/>

<path d="M652,448.26S656.12,431,679.34,431c0,0,19.89,1.07,25.83,31.09a8,8,0,0,0,5.93,6.81s24.09,9.07,28.63,41.89c0,0-11.35-.87-26.71-11.35,0,0-7.85-6.63-12.21-6.46l-22.52-11.86s-3.42-7.77-15.5-11Z" fill="#23223a" data-secondary="true"/>

<path d="M653,448.64s1.7-2.43,8.56-1.94a11.9,11.9,0,0,0,8.46-5.27s7.72-8.58,17.77,0c0,0,14.83,15.69,13.85,25.13,0,0-3.31,3.31-16-6.32,0,0-9.07-6.43-13.49-6.8,0,0-15.07-3.8-11.89,2.45,0,0,9.36,21.82-7.21,26.11,0,0-.79-18.09-2.07-21.8Z" fill="#e6e7e8"/>

<circle cx="669.31" cy="448.26" r="5.76" fill="#fff"/>

<circle cx="668.79" cy="448.26" r="3.82" fill="#23223a" data-secondary="true"/>

<circle cx="671.33" cy="445.78" r="2.02" fill="#fff"/>

<path d="M633.31,450.5s11-2.93,17.91-2.69a2.62,2.62,0,0,1,1.8.83,35.35,35.35,0,0,1,3.58,4.29,1,1,0,0,1-.06,1.24L652,459.61a1.79,1.79,0,0,1-1.91.55C646.94,459.14,638.32,456,633.31,450.5Z" fill="#23223a" data-secondary="true"/>

<path d="M633.31,450.5s11-2.93,17.91-2.69a2.62,2.62,0,0,1,1.8.83,35.35,35.35,0,0,1,3.58,4.29,1,1,0,0,1-.06,1.24L652,459.61a1.79,1.79,0,0,1-1.91.55C646.94,459.14,638.32,456,633.31,450.5Z" opacity="0.2"/>

<path d="M744.18,566.39C741.12,566,729,570.54,685.86,533l2.31-27.41,8.12-17.86s13.68,10.64,15.06,21.54c0,0,8.91,10.09,10.75,20.25,0,0,7.52,8.77,5.68,14.15,0,0,7.68,4.61,8.6,9.83,0,0,4,1.47,7.21,7.49a6.22,6.22,0,0,1,2.24,4S746.12,566.61,744.18,566.39Z" fill="#d1d3d4"/>

<path d="M691.85,533.26c1.67,1.36,3.33,2.72,5,4s3.36,2.66,5.07,4c3.41,2.61,6.84,5.18,10.39,7.57,1.74,1.25,3.54,2.41,5.33,3.58s3.64,2.25,5.51,3.29l1.39.81,1.42.73c1,.46,1.89,1,2.88,1.41s1.95.89,2.95,1.28l3,1.07a49.41,49.41,0,0,1-12-4.68,109.51,109.51,0,0,1-11-6.74c-3.53-2.47-7-5-10.31-7.77S694.93,536.26,691.85,533.26Z" fill="#bcbec0"/>

<path d="M697.56,527.07l8.88,7.49c3,2.48,5.93,5,9,7.34s6.1,4.76,9.26,7c1.58,1.1,3.2,2.16,4.87,3.11a19.86,19.86,0,0,0,5.29,2.29,18.27,18.27,0,0,1-5.49-1.9c-1.74-.88-3.41-1.88-5.06-2.92-3.27-2.1-6.37-4.45-9.43-6.83s-6-4.93-8.88-7.52S700.26,529.85,697.56,527.07Z" fill="#bcbec0"/>

<path d="M700,520.33c2,1.31,3.85,2.7,5.74,4.1s3.74,2.84,5.59,4.29,3.68,2.93,5.47,4.46l2.68,2.28c.88.79,1.77,1.55,2.63,2.36-1-.65-1.94-1.34-2.9-2l-2.85-2.09c-1.89-1.39-3.74-2.84-5.59-4.29s-3.67-2.93-5.46-4.45S701.71,521.93,700,520.33Z" fill="#bcbec0"/>

<path d="M698,490.1a4,4,0,0,0-1.75-2.37c-5.21-3.2-25-13.9-31.62,4,0,0-8.75,13.33,21.19,41.23,0,0,5.07,2.3,4.84-6.68,0,0,6,1.38,3.22-7.83,0,0,5.68.46,1.92-9.22,0,0,4-1.5,1.72-10.36C697.56,498.91,699.9,496.72,698,490.1Z" fill="#bcbec0"/>

<path d="M419.62,384.24a5.19,5.19,0,0,1,1.65-3,6.17,6.17,0,0,1,3.23-1.54,9,9,0,0,1,3.51.17c.56.16,1.11.33,1.65.54s1,.49,1.53.78c-.57-.08-1.12-.2-1.67-.31l-1.64-.25a12.82,12.82,0,0,0-3.22.05A6.88,6.88,0,0,0,419.62,384.24Z" fill="#23223a" data-secondary="true"/>

<path d="M446.38,380.3l-12.74-14a3.88,3.88,0,0,1-1-2.65v-5.25h.87v5.25a3.05,3.05,0,0,0,.8,2.07l12.74,14Z" fill="#23223a" data-secondary="true"/>

<path d="M442.66,384.14a7,7,0,0,1,2.24-3.49,8.12,8.12,0,0,1,3.85-1.78,11.45,11.45,0,0,1,4.21.1c.67.17,1.34.36,2,.57s1.27.54,1.89.84c-.69-.11-1.34-.28-2-.43l-2-.31a19.05,19.05,0,0,0-2-.09l-1,0-1,.15A8.76,8.76,0,0,0,442.66,384.14Z" fill="#23223a" data-secondary="true"/>

<polygon points="447.98 379.24 452 383.37 447.41 379.89 447.98 379.24" fill="#23223a" data-secondary="true"/>

<path d="M386.53,376.56,365.24,415s-7.72,12.16-3.14,14.73c0,0,3,2,7.72-2.72,0,0,1.14,9.87,10.44,3.86,0,0,.28,6.15,4.86,6.73,0,0,4.43.28,7.86-11.59l13.67-51Z" fill="#30e8a8" data-primary="true"/>

<path d="M369.41,426.88q4.24-11,9.14-21.7c3.25-7.14,6.72-14.19,10.52-21-3.68,6.92-7,14-10.12,21.22s-6,14.47-8.72,21.82Z" opacity="0.2"/>

<path d="M397.55,382.25q-3.68,12.39-7.8,24.64-2.07,6.12-4.34,12.16a106.4,106.4,0,0,1-5.15,11.84A106.67,106.67,0,0,0,385.2,419c1.46-4.05,2.83-8.13,4.14-12.23q3.92-12.3,7.37-24.74Z" opacity="0.2"/>

<path d="M464.88,273.9a6.91,6.91,0,0,0-.46,2.74l.95,29s1,32.5-29.7,52.63a86.63,86.63,0,0,1-17.49,7.8l-17.91-85.21s4.16-12.91,9.22-21.45l-4.61-1.85,6.92-2.76a30.48,30.48,0,0,1-7.89-5,31.29,31.29,0,0,0,7.89-1s-5.66-4.72-6.69-8a103.49,103.49,0,0,0,12.78-.57l16.18-2.51s24.55-7.5,33.07,16.61l-1,11.91S466.81,269.08,464.88,273.9Z" fill="#30e8a8" data-primary="true"/>

<path d="M464.88,273.9a6.91,6.91,0,0,0-.46,2.74l.95,29s1,32.5-29.7,52.63a86.63,86.63,0,0,1-17.49,7.8C456.58,341,460.8,316.9,460.8,316.9c5.72-21.66-11.87-30.07-12.61-30.4l0,0v-.15a7.54,7.54,0,0,0-2-5s0,0-.06-.06a4.23,4.23,0,0,0-.66-.76,3.9,3.9,0,0,0-.66-.62c-.37-.33-.62-.51-.62-.51-.27-.23-.51-.46-.76-.68l-.25-.23c-5.86-5.5-6.6-11.18-6-15.25,0-.25.08-.52.13-.78a.73.73,0,0,1,0-.23c.08-.47.2-.91.31-1.32a15.93,15.93,0,0,1,.94-2.51,6.67,6.67,0,0,1,.33-.66,2.46,2.46,0,0,1,.19-.35s0,0,0,0a17.55,17.55,0,0,1,6.32-6.71c.22-.12.43-.25.66-.35a1.65,1.65,0,0,1,.26-.14,10.06,10.06,0,0,1,1.34-.56c.23-.06.47-.14.72-.22l.74-.19a13.68,13.68,0,0,1,4.06-.35c.24,0,.51,0,.76,0a5.47,5.47,0,0,1,.8.1l.8.13a4,4,0,0,1,.85.16,29.73,29.73,0,0,1,10.66,5,.3.3,0,0,1,.08.07l-1,11.91S466.81,269.08,464.88,273.9Z" fill="#e6e7e8"/>

<path d="M468.06,254.63a2.65,2.65,0,0,0-2.22.14c-1.29.71-3,2.42-2.48,6.41,0,0,.31,5.89,6.36,4l10.42-5.67a.22.22,0,0,0,0-.39Z" fill="#23223a" data-secondary="true"/>

<circle cx="452.09" cy="258.55" r="5.99" fill="#30e8a8" data-primary="true"/>

<circle cx="452.84" cy="258.55" r="3.92" fill="#23223a" data-secondary="true"/>

<circle cx="450.96" cy="256.5" r="2.05" fill="#30e8a8" data-primary="true"/>

<path d="M384.05,318.39s.27,30.54,2.43,39.15a8.67,8.67,0,0,1,.15,3.62c-.86,5.08-2.44,17.95,3.32,19.13,0,0,10.58,2.21,28.23-14.26,0,0,23.89-14.09,37-36.08l-14.37-5.24Z" fill="#30e8a8" data-primary="true"/>

<path d="M384.05,318.39s.27,30.54,2.43,39.15a8.67,8.67,0,0,1,.15,3.62c-.86,5.08-2.44,17.95,3.32,19.13,0,0,10.58,2.21,28.23-14.26,0,0,23.89-14.09,37-36.08l-14.37-5.24Z" opacity="0.2"/>

<path d="M399.87,343.18c-1.42,2-2.89,4-4.43,6-.78,1-1.57,1.92-2.4,2.84a12.93,12.93,0,0,1-2.79,2.43,12.56,12.56,0,0,0,2.62-2.58c.78-.95,1.51-1.95,2.22-2.95,1.42-2,2.77-4.08,4.06-6.17Z" opacity="0.2"/>

<path d="M408.73,344a46.28,46.28,0,0,1-3.9,6.38,63.65,63.65,0,0,1-4.68,5.79,68.55,68.55,0,0,1-5.29,5.22c-1.84,1.66-3.8,3.17-5.79,4.64a74,74,0,0,0,5.64-4.8,67.76,67.76,0,0,0,5.11-5.34,63.22,63.22,0,0,0,4.47-5.88,43.29,43.29,0,0,0,3.64-6.36Z" opacity="0.2"/>

<path d="M423.39,344.1c-2.42,2.9-4.91,5.71-7.46,8.48s-5.17,5.47-7.88,8.09-5.48,5.16-8.42,7.51a51,51,0,0,1-9.38,6.23,50.26,50.26,0,0,0,9.24-6.4c2.89-2.4,5.62-5,8.26-7.65s5.21-5.41,7.69-8.22,4.93-5.66,7.27-8.59Z" opacity="0.2"/>

<path d="M438.68,340.42c-2.23,3-4.6,5.92-7,8.74s-5,5.56-7.65,8.2-5.41,5.15-8.28,7.54a88,88,0,0,1-9.06,6.56,88.54,88.54,0,0,0,8.92-6.72c2.81-2.45,5.54-5,8.12-7.68s5.06-5.46,7.45-8.32,4.69-5.79,6.83-8.82Z" opacity="0.2"/>

<path d="M386.27,330.13c.12,3.89.29,7.77.54,11.65.13,1.94.28,3.88.47,5.82s.4,3.87.76,5.78c-.43-1.9-.71-3.83-1-5.76s-.48-3.86-.68-5.8q-.58-5.82-1-11.65Z" opacity="0.2"/>

<polygon points="423.38 380.67 414.83 369.01 415.49 368.44 424.04 380.1 423.38 380.67" fill="#23223a" data-secondary="true"/>

<polygon points="423.71 380.06 427.22 383.79 423.05 380.81 423.71 380.06" fill="#23223a" data-secondary="true"/>

<path d="M386.4,322.86s-2.93,1.89-2.24-5.35c0,0,2.22-39.59,16.11-36.69,0,0,4.41,2.38,6.65,24.8l.69,5.34s17.83-36.15,40.55-24.63c0,0,13.08,5.83,13.76,21.08,0,0,1.65,8.76-6.73,22.54,0,0-3.82,4.32-5,.69,0,0-10,11-9.63,1.45,0,0-12.8,13.63-13.9,3.88,0,0-12.76,9.76-14.91-.46,0,0-12.4,8.46-14.16,1,0,0-5.88,3.68-6.62-5.29,0,0-3.82,2.06-3.67-4.7C387.31,326.48,385.35,326.74,386.4,322.86Z" fill="#30e8a8" data-primary="true"/>

<path d="M386.4,322.86s-2.93,1.89-2.24-5.35c0,0,2.22-39.59,16.11-36.69,0,0,4.41,2.38,6.65,24.8l.69,5.34s17.83-36.15,40.55-24.63c0,0,13.08,5.83,13.76,21.08,0,0,1.65,8.76-6.73,22.54,0,0-3.82,4.32-5,.69,0,0-10,11-9.63,1.45,0,0-12.8,13.63-13.9,3.88,0,0-12.76,9.76-14.91-.46,0,0-12.4,8.46-14.16,1,0,0-5.88,3.68-6.62-5.29,0,0-3.82,2.06-3.67-4.7C387.31,326.48,385.35,326.74,386.4,322.86Z" opacity="0.4"/>

<path d="M235.26,634.18l.65-.43c-3.6-5.39-12.16-6-13.47-6.09L209,614a1.86,1.86,0,0,1-.53-1.3v-3.26l-.78,1.26v2.39a1.73,1.73,0,0,0,.48,1.18l13.91,14.14h.15C222.35,628.44,231.67,628.79,235.26,634.18Z" fill="#23223a" data-secondary="true"/>

<path d="M226.81,635.68l.78-.07c-.31-3.47-4.87-7.68-5.06-7.85l-.15-.14-.2,0c-3.21.71-7,3.75-7.16,3.88l.49.6s3.65-2.92,6.64-3.67C222.93,629.22,226.56,632.84,226.81,635.68Z" fill="#23223a" data-secondary="true"/>

<path d="M202,640.47l.68-.38a18,18,0,0,0-12.06-8.6l-11.38-16.16a3.38,3.38,0,0,1-.59-1.59l-.09-3.56-1.13-.72.56,5.43,0,.09,12.14,17.23.17,0A17.16,17.16,0,0,1,202,640.47Z" fill="#23223a" data-secondary="true"/>

<path d="M193.48,639.9l.74-.23c-.07-.24-1.84-5.69-3.5-8l-.08-.11-.12,0a10.14,10.14,0,0,0-7.82,1.27l.4.67a9.65,9.65,0,0,1,7.06-1.23C191.73,634.51,193.46,639.85,193.48,639.9Z" fill="#23223a" data-secondary="true"/>

<path d="M145.41,579.46s-29.53.95-42.83-1.22c0,0-23.34-4.62-26.46,0,0,0-2.72,3,3.26,5.3,0,0-6,2.2.54,6.19,0,0-3.74,2.95.41,4.23a9.4,9.4,0,0,0,3.73.29c4.72-.49,20.25-2.18,32.64-4.52,0,0,19-2.79,24.38-2.59A36.89,36.89,0,0,0,145.41,579.46Z" fill="#30e8a8" data-primary="true"/>

<path d="M145.15,580.53c-10,.09-20.71.19-30.71.18-5,0-10,0-15-.11q-3.75,0-7.5-.15c-1.25,0-2.5-.06-3.75-.14l-1.87-.1L84.47,580l1.86.19,1.87.13c1.25.09,2.5.13,3.75.19,2.49.1,5,.19,7.49.25q7.5.19,15,.29c10,.15,20.5.23,30.5.27Z" fill="#fff" opacity="0.2"/>

<path d="M144.11,582.81c-9.89.76-20.72,1.43-30.62,2s-19.82,1-29.74,1.13c9.92,0,19.84-.32,29.75-.74s20.32-.92,30.22-1.55Z" fill="#fff" opacity="0.2"/>

<path d="M142.56,585.56c-8.58.39-18,.94-26.6,1.71q-6.42.56-12.8,1.37a118,118,0,0,0-12.69,2.19,121.25,121.25,0,0,1,12.71-2c4.26-.49,8.53-.87,12.81-1.18,8.56-.63,17.73-1.15,26.3-1.42Z" fill="#fff" opacity="0.2"/>

<path d="M145.41,579.46s13.48,36.48,51.37,33.33c0,0,51.82-2.91,43.15-52.64l-.13-.9-2.63-17.44.05-21.46a18.69,18.69,0,0,0-.37-4.71c-.94-5.05-4.12-13-14.58-17.88,0,0-3.52-2.79-18.48-4.7,0,0-17.6-2.93-24-15a16.31,16.31,0,0,0,.87,8.07l-2.93-.44s2.35,5.14,3.81,7.48c0,0-2.74-.72-3.79-1.86.6.94,12.87,20.15,6,35.16,0,0-4.55,9.68-16.13,22.72C167.57,549.23,150.55,568,145.41,579.46Z" fill="#30e8a8" data-primary="true"/>

<path d="M207.11,524.42c.51,4.11,3.11,10.48,13.39,15.22,0,0,2.23,1.27,4.7,5.2a36,36,0,0,0,3.88,5.22c2.68,2.92,6.95,7.19,10.72,9.19l-2.63-17.44.05-21.46a18.69,18.69,0,0,0-.37-4.71s-3,4.05-11.95,2.72a13.48,13.48,0,0,1-3.37-1,15.9,15.9,0,0,0-8.29-1.45A7.53,7.53,0,0,0,207.11,524.42Z" fill="#23223a" data-secondary="true"/>

<path d="M237.17,520.58l15.23,9.27a.41.41,0,0,1,0,.68L237.26,540.8a1.91,1.91,0,0,1-2.25-.07,16.77,16.77,0,0,1-5.79-10s-.53-6,6-10.18A1.83,1.83,0,0,1,237.17,520.58Z" fill="#23223a" data-secondary="true"/>

<path d="M237.17,520.58l15.23,9.27a.41.41,0,0,1,0,.68L237.26,540.8a1.91,1.91,0,0,1-2.25-.07,16.77,16.77,0,0,1-5.79-10s-.53-6,6-10.18A1.83,1.83,0,0,1,237.17,520.58Z" opacity="0.2"/>

<circle cx="216.26" cy="524.66" r="8.07" fill="#fff"/>

<circle cx="216.26" cy="524.66" r="5.21" fill="#23223a" data-secondary="true"/>

<circle cx="213.56" cy="522.09" r="2.76" fill="#fff"/>

<path d="M148.63,579.49a4.61,4.61,0,0,0,5-.38s-1.18,5.45,7.5,2.67c0,0-1.05,4.69,8.56,2.59,0,0-2.69,5,8.94,1.57a1.76,1.76,0,0,0,1.78,1.2l3.56-.43a8.11,8.11,0,0,0,3.77-1.51.64.64,0,0,0,.15-.13c.2-.16.35-.31.5-.42s.38-.37.38-.37c5.34-5.63,18.45-21.44,9.61-32.46a10.64,10.64,0,0,0-4.57-3.18c-5.74-2.16-19.54-4.8-33.47,11.66,0,0-8.42,7.57-11.18,13.91C148.28,576.18,148,578,148.63,579.49Z" fill="#30e8a8" data-primary="true"/>

<path d="M148.63,579.49a4.61,4.61,0,0,0,5-.38s-1.18,5.45,7.5,2.67c0,0-1.05,4.69,8.56,2.59,0,0-2.69,5,8.94,1.57a1.76,1.76,0,0,0,1.78,1.2l3.56-.43a8.11,8.11,0,0,0,3.77-1.51.64.64,0,0,0,.15-.13c.2-.16.35-.31.5-.42s.38-.37.38-.37c5.34-5.63,18.45-21.44,9.61-32.46a10.64,10.64,0,0,0-4.57-3.18c-5.74-2.16-19.54-4.8-33.47,11.66,0,0-8.42,7.57-11.18,13.91C148.28,576.18,148,578,148.63,579.49Z" opacity="0.4"/>

<path d="M130.93,616.29c18.29,2.45,50.65-25.58,56.8-31.09a8.11,8.11,0,0,1-3.77,1.51l-3.56.43a1.76,1.76,0,0,1-1.78-1.2c-11.63,3.41-8.94-1.57-8.94-1.57-9.61,2.1-8.56-2.59-8.56-2.59-8.68,2.78-7.5-2.67-7.5-2.67a4.61,4.61,0,0,1-5,.38c-.66-1.47-.35-3.31.52-5.28a80.9,80.9,0,0,0-8.07,12.93c-6,10.86-3.66,11.43-3.66,11.43a14.51,14.51,0,0,0-3.78,9.47C130.8,611,130.93,616.29,130.93,616.29Z" fill="#30e8a8" data-primary="true"/>

<path d="M130.93,616.29c18.29,2.45,50.65-25.58,56.8-31.09a8.11,8.11,0,0,1-3.77,1.51l-3.56.43a1.76,1.76,0,0,1-1.78-1.2c-11.63,3.41-8.94-1.57-8.94-1.57-9.61,2.1-8.56-2.59-8.56-2.59-8.68,2.78-7.5-2.67-7.5-2.67a4.61,4.61,0,0,1-5,.38c-.66-1.47-.35-3.31.52-5.28a80.9,80.9,0,0,0-8.07,12.93c-6,10.86-3.66,11.43-3.66,11.43a14.51,14.51,0,0,0-3.78,9.47C130.8,611,130.93,616.29,130.93,616.29Z" opacity="0.2"/>

<path d="M191.25,563c-1,.3-2.08.58-3.13.83a28.78,28.78,0,0,1-3.16.59,11.34,11.34,0,0,1-3.13,0,2.32,2.32,0,0,1-2.11-1.56l-.1-.42-.42.17a14.43,14.43,0,0,1-4.62,1.09,5.11,5.11,0,0,1-2.3-.36,3.6,3.6,0,0,1-1.72-1.6,3.53,3.53,0,0,0,1.57,1.9,5.1,5.1,0,0,0,2.45.6,10.57,10.57,0,0,0,2.51-.22,14.14,14.14,0,0,0,2.41-.72l-.52-.25a2.57,2.57,0,0,0,1.06,1.52,4.15,4.15,0,0,0,1.68.6,10.64,10.64,0,0,0,3.34-.15,25.91,25.91,0,0,0,3.17-.84A26.47,26.47,0,0,0,191.25,563Z" fill="#fff" opacity="0.2"/>

<path d="M193.16,569.9a29.31,29.31,0,0,1-6.2,1,13.25,13.25,0,0,1-3.09-.19,6.59,6.59,0,0,1-2.74-1.13l-.13-.1-.17,0a31.53,31.53,0,0,1-5.31.52,13.37,13.37,0,0,1-2.62-.23,3.12,3.12,0,0,1-2.06-1.17l-.14-.22-.24.08a12.28,12.28,0,0,1-2.12.45,10,10,0,0,1-2.19,0,7.09,7.09,0,0,1-2.11-.56,5.67,5.67,0,0,1-1.73-1.36,5.17,5.17,0,0,0,1.63,1.56,6.87,6.87,0,0,0,2.16.76,10.23,10.23,0,0,0,2.28.09,11.89,11.89,0,0,0,2.28-.36l-.38-.15a3.71,3.71,0,0,0,2.46,1.55,12.45,12.45,0,0,0,2.78.29,28.64,28.64,0,0,0,5.46-.55l-.3-.07a7.25,7.25,0,0,0,3.08,1.19,13,13,0,0,0,3.23,0,19.28,19.28,0,0,0,3.14-.56A21.37,21.37,0,0,0,193.16,569.9Z" fill="#fff" opacity="0.2"/>

<path d="M187.06,580.59a19.28,19.28,0,0,1-4.35.22,6.75,6.75,0,0,1-2.06-.43,2.27,2.27,0,0,1-1.4-1.27l-.09-.22-.26,0a29.09,29.09,0,0,1-5.75.1,11.39,11.39,0,0,1-2.75-.57,3.13,3.13,0,0,1-1.94-1.63l-.14-.35-.35.16a8.46,8.46,0,0,1-2.43.65,9.54,9.54,0,0,1-2.56,0,11.44,11.44,0,0,1-1.27-.26l-.62-.17-.62-.22a15.08,15.08,0,0,1-2.35-1.16c.36.25.7.53,1.08.76a12.06,12.06,0,0,0,1.17.65,9.74,9.74,0,0,0,2.54.85,10.1,10.1,0,0,0,2.69.17,8.18,8.18,0,0,0,2.68-.63l-.48-.19a2.91,2.91,0,0,0,1,1.32,4.87,4.87,0,0,0,1.37.76,10.88,10.88,0,0,0,3,.63,26.53,26.53,0,0,0,5.91-.21l-.35-.2a2.93,2.93,0,0,0,1.82,1.52,7.21,7.21,0,0,0,2.24.34,14.85,14.85,0,0,0,2.21-.17A17.11,17.11,0,0,0,187.06,580.59Z" fill="#fff" opacity="0.2"/>

<path d="M178.75,588.25c-3.4,2.71-6.92,5.3-10.48,7.81s-7.18,4.94-10.89,7.23-7.48,4.49-11.38,6.44a82.14,82.14,0,0,1-12.07,5,81.62,81.62,0,0,0,12.15-4.85c3.94-1.89,7.74-4.06,11.5-6.28s7.41-4.63,11-7.08,7.17-5,10.63-7.68Z" fill="#fff" opacity="0.2"/>

<path d="M168,588.25c-5.41,4.21-10.93,8.29-16.57,12.19-2.83,1.95-5.68,3.87-8.59,5.68s-5.87,3.56-8.94,5.1c3.1-1.48,6.09-3.18,9-4.94s5.84-3.62,8.7-5.52q8.6-5.7,16.84-11.89Z" fill="#fff" opacity="0.2"/>

<path d="M160,586.83q-5.22,4.18-10.55,8.24-2.67,2-5.38,4c-1.81,1.31-3.64,2.59-5.54,3.76,1.94-1.11,3.8-2.35,5.65-3.6s3.68-2.53,5.5-3.83q5.46-3.9,10.8-7.94Z" fill="#fff" opacity="0.2"/>

<path d="M153.34,584.1a.89.89,0,0,0-.43.17,2.49,2.49,0,0,0-.24.17l-.4.35-.76.71L150,586.91q-1.5,1.4-3,2.76c-2,1.82-4.14,3.58-6.27,5.3,2.21-1.61,4.39-3.28,6.52-5,1.07-.86,2.12-1.74,3.17-2.63L152,586l.77-.66.39-.3.18-.12.07,0s0,0,0,0Z" fill="#fff" opacity="0.2"/>

<polygon points="148.01 582.4 143.57 587.14 148.54 582.96 148.01 582.4" fill="#fff" opacity="0.2"/>

<path d="M324.67,135.48l-7.13-10.69a5.14,5.14,0,0,1-.85-2.84v-4h1v4a4.1,4.1,0,0,0,.69,2.28l7.12,10.7Z" fill="#23223a" data-secondary="true"/>

<path d="M321.57,139.1l-.87-.5c1.42-2.48,3.2-3.88,5.28-4.14,3.7-.48,6.94,2.77,7.07,2.9l-.71.71s-3-3-6.23-2.62C324.35,135.68,322.83,136.9,321.57,139.1Z" fill="#23223a" data-secondary="true"/>

<rect x="327.12" y="134.31" width="1" height="5.8" transform="matrix(0.76, -0.65, 0.65, 0.76, -10.51, 245.96)" fill="#23223a" data-secondary="true"/>

<path d="M299.91,131.94c-2.5-6.73-3.62-19.23-3.67-19.76l1-.09c0,.13,1.15,12.9,3.6,19.5Z" fill="#23223a" data-secondary="true"/>

<path d="M307.41,137.24c-.22-.06-.32-.19-.69-.68-.89-1.18-3-3.94-5.62-4.16a5.22,5.22,0,0,0-4,1.73l-.69-.72a6.13,6.13,0,0,1,4.79-2c3.11.26,5.37,3.27,6.34,4.56.15.19.25.34.31.4l-.27.27Z" fill="#23223a" data-secondary="true"/>

<path d="M303.36,136.88s-1.13-4.13-3.54-4.41l.11-1c3.09.35,4.35,5,4.4,5.14Z" fill="#23223a" data-secondary="true"/>

<path d="M281.62,108.44s-24.87,27.33-29.2,23c0,0-4.52,1.32-6.21-2.82,0,0-7.35,3-7-2.26l26.6-20.64,9.36-6.47h9Z" fill="#a7a9ac"/>

<path d="M352.23,89.74s-7.89,22.3-31.37,29.59a29.81,29.81,0,0,1-12.17,1.1c-8.9-1-25-4.8-32-19.11l18.08-28.43Z" fill="#e6e7e8"/>

<path d="M349.15,20.09s-8.45-15.78-36.53-8c0,0-23.75,7.56-26.81,31.85a18.77,18.77,0,0,1-4,8.1S266.73,76,272,91.06l34.91-11.71Z" fill="#bcbec0"/>

<path d="M353,26.54s-2-8.8-12.42-10.85c0,0-15.72-5.5-25.31,6.92,0,0-7.38,7.39-8.64,29.55,0,0-1.73,17.77-5.35,23.74,0,0,3.21,16.8,23.17,18.43A24.08,24.08,0,0,0,334.52,93c3-1.07,7.59-2.15,10.63-.29,0,0,4.25,2,7.08-3,0,0,5-10.38-1.26-31,0,0-3.62-10.85.16-20.28Z" fill="#30e8a8" data-primary="true"/>

<path d="M364.77,31.83a1,1,0,0,0-.06-1.71c-3.21-1.86-11.26-6.1-14.37-3.74,0,0-7.23,5.66-.94,12,0,0,1.56,2,8.12-1.54l.1-.06Z" fill="#23223a" data-secondary="true"/>

<circle cx="329.37" cy="27.13" r="8.22" fill="#fff"/>

<circle cx="329.87" cy="27.13" r="5.77" fill="#23223a" data-secondary="true"/>

<circle cx="327.71" cy="23.17" r="3.08" fill="#fff"/>

<path d="M278.32,70.54c-15,25.69-13.87,33.11-12.48,35.18a1.6,1.6,0,0,0,1.6.67c18.13-3,32.94-25.42,32.94-25.42Z" fill="#939598"/>

<path d="M288.29,87c-.73.64-1.44,1.3-2.19,1.93s-1.45,1.29-2.19,1.92c-1.48,1.26-3,2.52-4.45,3.74s-3,2.4-4.59,3.57c-.78.57-1.56,1.15-2.37,1.68s-1.62,1.07-2.42,1.63a38.75,38.75,0,0,0,5.12-2.84c1.63-1.07,3.2-2.24,4.72-3.47s3-2.53,4.38-3.89A55.52,55.52,0,0,0,288.29,87Z" fill="#a7a9ac"/>

<path d="M280.29,82.39c-2,1.76-3.83,3.57-5.74,5.34s-3.84,3.5-5.83,5.22a31.14,31.14,0,0,0,6.33-4.68A39,39,0,0,0,280.29,82.39Z" fill="#a7a9ac"/>

<path d="M277.92,76.43a16.42,16.42,0,0,0-2.52,2.76,16.86,16.86,0,0,0-1.92,3.2A16.42,16.42,0,0,0,276,79.63,16.86,16.86,0,0,0,277.92,76.43Z" fill="#a7a9ac"/>

<path d="M296.17,84.55a5.46,5.46,0,0,0,3.77-2.79c2.94-5.24,10.74-20.39,4.43-24,0,0-11-7.68-26.05,12.73a2,2,0,0,0-.36,1.62,3.85,3.85,0,0,0,4.55,3.19s-1.67,6.25,4.85,4.58c0,0,1.32,4.85,6.25,3.17C293.61,83.1,293.72,85,296.17,84.55Z" fill="#a7a9ac"/>

<path d="M239.37,170.47c-11.43,0-204.48,1.25-216.61.88a1,1,0,0,1-.48-1.75c7.66-3.79,16.33-3,24.28-5.7,4.67-1.63,7.54-4.63,10.79-8.16a22.31,22.31,0,0,1,10-6.53,21.15,21.15,0,0,1,10.94-.34c3.9.93,7.31,3.16,11,4.59,9.26,3.49,18.27.17,24.9-6.7,5.45-5.65,10.82-11,18.25-14a24.29,24.29,0,0,1,19.33-.26c7.09,3.27,11.94,9.66,18.6,13.53,7.88,4.62,17.3,3.53,26,4.9s15.4,8.72,23,13a16.52,16.52,0,0,0,8.33,2.58,43.38,43.38,0,0,0,5.06-.72c2.63-.33,5.12-.25,6.89,1.94C240.22,168.2,240.12,170.47,239.37,170.47Z" fill="#ebebeb"/>

</svg>
