<svg viewBox="0 0 200 200" xmlns="http://www.w3.org/2000/svg">
  <path fill="rgba(25,25,25,0.5)" d="M43.2,-64.4C54.8,-59.8,62.2,-45.8,66.4,-31.8C70.5,-17.7,71.5,-3.7,71.8,12C72.2,27.7,72.1,45,64.3,57.9C56.6,70.8,41.2,79.3,26.3,78.8C11.4,78.3,-3,68.8,-17.9,63.4C-32.8,57.9,-48.2,56.5,-61.1,48.9C-74,41.3,-84.4,27.5,-85,13.2C-85.6,-1.2,-76.5,-15.9,-64.8,-24.6C-53.1,-33.3,-38.9,-35.8,-27.6,-40.6C-16.4,-45.3,-8.2,-52.3,3.8,-58.2C15.8,-64.1,31.6,-68.9,43.2,-64.4Z" transform="translate(100 100)" />
</svg>
